<mxfile host="app.diagrams.net" modified="2021-12-09T10:02:57.491Z" agent="5.0 (Windows NT 10.0; Win64; x64) AppleWebKit/537.36 (KHTML, like Gecko) Chrome/96.0.4664.55 Safari/537.36 Edg/96.0.1054.43" etag="M61g20AgznpY0x4hmMED" version="15.9.1" type="github">
  <diagram id="N8ADgIWO7hAObV6t2DQn" name="Page-1">
    <mxGraphModel dx="2062" dy="1154" grid="1" gridSize="10" guides="1" tooltips="1" connect="1" arrows="1" fold="1" page="1" pageScale="1" pageWidth="850" pageHeight="1100" math="0" shadow="0">
      <root>
        <mxCell id="0" />
        <mxCell id="1" parent="0" />
        <mxCell id="gMSNzuXhNrLDo63YcK9G-50" style="edgeStyle=orthogonalEdgeStyle;rounded=0;orthogonalLoop=1;jettySize=auto;html=1;entryX=0;entryY=0.75;entryDx=0;entryDy=0;exitX=0.5;exitY=0;exitDx=0;exitDy=0;" edge="1" parent="1" source="gMSNzuXhNrLDo63YcK9G-15" target="gMSNzuXhNrLDo63YcK9G-36">
          <mxGeometry relative="1" as="geometry">
            <mxPoint x="95" y="270" as="targetPoint" />
          </mxGeometry>
        </mxCell>
        <mxCell id="gMSNzuXhNrLDo63YcK9G-15" value="Authenticate through server and save socket id in the database" style="whiteSpace=wrap;html=1;" vertex="1" parent="1">
          <mxGeometry x="35" y="380" width="120" height="60" as="geometry" />
        </mxCell>
        <mxCell id="gMSNzuXhNrLDo63YcK9G-17" style="edgeStyle=orthogonalEdgeStyle;rounded=0;orthogonalLoop=1;jettySize=auto;html=1;entryX=0;entryY=0.5;entryDx=0;entryDy=0;exitX=0.5;exitY=0;exitDx=0;exitDy=0;" edge="1" parent="1" source="gMSNzuXhNrLDo63YcK9G-16" target="gMSNzuXhNrLDo63YcK9G-18">
          <mxGeometry relative="1" as="geometry">
            <mxPoint x="90" y="60" as="targetPoint" />
          </mxGeometry>
        </mxCell>
        <mxCell id="gMSNzuXhNrLDo63YcK9G-48" style="edgeStyle=orthogonalEdgeStyle;rounded=0;orthogonalLoop=1;jettySize=auto;html=1;entryX=0;entryY=0.5;entryDx=0;entryDy=0;" edge="1" parent="1" source="gMSNzuXhNrLDo63YcK9G-16" target="gMSNzuXhNrLDo63YcK9G-15">
          <mxGeometry relative="1" as="geometry">
            <Array as="points">
              <mxPoint x="15" y="150" />
              <mxPoint x="15" y="410" />
            </Array>
          </mxGeometry>
        </mxCell>
        <mxCell id="gMSNzuXhNrLDo63YcK9G-16" value="is auth token" style="rhombus;whiteSpace=wrap;html=1;" vertex="1" parent="1">
          <mxGeometry x="60" y="110" width="80" height="80" as="geometry" />
        </mxCell>
        <mxCell id="gMSNzuXhNrLDo63YcK9G-34" style="edgeStyle=orthogonalEdgeStyle;rounded=0;orthogonalLoop=1;jettySize=auto;html=1;exitX=1;exitY=0.5;exitDx=0;exitDy=0;entryX=0;entryY=0.5;entryDx=0;entryDy=0;" edge="1" parent="1" source="gMSNzuXhNrLDo63YcK9G-18" target="gMSNzuXhNrLDo63YcK9G-24">
          <mxGeometry relative="1" as="geometry" />
        </mxCell>
        <mxCell id="gMSNzuXhNrLDo63YcK9G-18" value="Notify server and update socket id in the database" style="whiteSpace=wrap;html=1;" vertex="1" parent="1">
          <mxGeometry x="250" y="20" width="120" height="60" as="geometry" />
        </mxCell>
        <mxCell id="gMSNzuXhNrLDo63YcK9G-19" value="yes" style="text;html=1;align=center;verticalAlign=middle;resizable=0;points=[];autosize=1;strokeColor=none;fillColor=none;" vertex="1" parent="1">
          <mxGeometry x="155" y="20" width="30" height="20" as="geometry" />
        </mxCell>
        <mxCell id="gMSNzuXhNrLDo63YcK9G-20" value="No" style="text;html=1;align=center;verticalAlign=middle;resizable=0;points=[];autosize=1;strokeColor=none;fillColor=none;" vertex="1" parent="1">
          <mxGeometry x="100" y="220" width="30" height="20" as="geometry" />
        </mxCell>
        <mxCell id="gMSNzuXhNrLDo63YcK9G-22" value="get response with current order" style="whiteSpace=wrap;html=1;" vertex="1" parent="1">
          <mxGeometry x="730" y="45" width="120" height="60" as="geometry" />
        </mxCell>
        <mxCell id="gMSNzuXhNrLDo63YcK9G-25" style="edgeStyle=orthogonalEdgeStyle;rounded=0;orthogonalLoop=1;jettySize=auto;html=1;entryX=0;entryY=0.5;entryDx=0;entryDy=0;exitX=0.5;exitY=0;exitDx=0;exitDy=0;" edge="1" parent="1" source="gMSNzuXhNrLDo63YcK9G-24" target="gMSNzuXhNrLDo63YcK9G-38">
          <mxGeometry relative="1" as="geometry" />
        </mxCell>
        <mxCell id="gMSNzuXhNrLDo63YcK9G-60" style="edgeStyle=orthogonalEdgeStyle;rounded=0;orthogonalLoop=1;jettySize=auto;html=1;exitX=0.5;exitY=1;exitDx=0;exitDy=0;" edge="1" parent="1" source="gMSNzuXhNrLDo63YcK9G-24" target="gMSNzuXhNrLDo63YcK9G-59">
          <mxGeometry relative="1" as="geometry" />
        </mxCell>
        <mxCell id="gMSNzuXhNrLDo63YcK9G-24" value="is order closed" style="rhombus;whiteSpace=wrap;html=1;" vertex="1" parent="1">
          <mxGeometry x="470" y="80" width="80" height="80" as="geometry" />
        </mxCell>
        <mxCell id="gMSNzuXhNrLDo63YcK9G-26" value="yes" style="text;html=1;align=center;verticalAlign=middle;resizable=0;points=[];autosize=1;strokeColor=none;fillColor=none;" vertex="1" parent="1">
          <mxGeometry x="455" y="160" width="30" height="20" as="geometry" />
        </mxCell>
        <mxCell id="gMSNzuXhNrLDo63YcK9G-27" value="No" style="text;html=1;align=center;verticalAlign=middle;resizable=0;points=[];autosize=1;strokeColor=none;fillColor=none;" vertex="1" parent="1">
          <mxGeometry x="515" y="45" width="30" height="20" as="geometry" />
        </mxCell>
        <mxCell id="gMSNzuXhNrLDo63YcK9G-44" style="edgeStyle=orthogonalEdgeStyle;rounded=0;orthogonalLoop=1;jettySize=auto;html=1;entryX=0.5;entryY=1;entryDx=0;entryDy=0;" edge="1" parent="1" source="gMSNzuXhNrLDo63YcK9G-28" target="gMSNzuXhNrLDo63YcK9G-22">
          <mxGeometry relative="1" as="geometry" />
        </mxCell>
        <mxCell id="gMSNzuXhNrLDo63YcK9G-28" value="Search for a person with one of the group socket ids and find it&#39;s order" style="whiteSpace=wrap;html=1;" vertex="1" parent="1">
          <mxGeometry x="610" y="180" width="120" height="60" as="geometry" />
        </mxCell>
        <mxCell id="gMSNzuXhNrLDo63YcK9G-41" style="edgeStyle=orthogonalEdgeStyle;rounded=0;orthogonalLoop=1;jettySize=auto;html=1;entryX=0;entryY=0.5;entryDx=0;entryDy=0;" edge="1" parent="1" source="gMSNzuXhNrLDo63YcK9G-36" target="gMSNzuXhNrLDo63YcK9G-40">
          <mxGeometry relative="1" as="geometry" />
        </mxCell>
        <mxCell id="gMSNzuXhNrLDo63YcK9G-36" value="enter group as a new user" style="whiteSpace=wrap;html=1;" vertex="1" parent="1">
          <mxGeometry x="170" y="220" width="90" height="60" as="geometry" />
        </mxCell>
        <mxCell id="gMSNzuXhNrLDo63YcK9G-39" style="edgeStyle=orthogonalEdgeStyle;rounded=0;orthogonalLoop=1;jettySize=auto;html=1;entryX=0;entryY=0.5;entryDx=0;entryDy=0;" edge="1" parent="1" source="gMSNzuXhNrLDo63YcK9G-38" target="gMSNzuXhNrLDo63YcK9G-22">
          <mxGeometry relative="1" as="geometry" />
        </mxCell>
        <mxCell id="gMSNzuXhNrLDo63YcK9G-38" value="enter group as existing user" style="whiteSpace=wrap;html=1;" vertex="1" parent="1">
          <mxGeometry x="570" y="5" width="120" height="60" as="geometry" />
        </mxCell>
        <mxCell id="gMSNzuXhNrLDo63YcK9G-42" style="edgeStyle=orthogonalEdgeStyle;rounded=0;orthogonalLoop=1;jettySize=auto;html=1;exitX=0.5;exitY=0;exitDx=0;exitDy=0;entryX=0;entryY=0.5;entryDx=0;entryDy=0;" edge="1" parent="1" source="gMSNzuXhNrLDo63YcK9G-40" target="gMSNzuXhNrLDo63YcK9G-28">
          <mxGeometry relative="1" as="geometry">
            <mxPoint x="590" y="270" as="targetPoint" />
          </mxGeometry>
        </mxCell>
        <mxCell id="gMSNzuXhNrLDo63YcK9G-47" style="edgeStyle=orthogonalEdgeStyle;rounded=0;orthogonalLoop=1;jettySize=auto;html=1;entryX=0;entryY=0.5;entryDx=0;entryDy=0;exitX=0.5;exitY=1;exitDx=0;exitDy=0;" edge="1" parent="1" source="gMSNzuXhNrLDo63YcK9G-40" target="gMSNzuXhNrLDo63YcK9G-45">
          <mxGeometry relative="1" as="geometry">
            <Array as="points">
              <mxPoint x="420" y="440" />
            </Array>
          </mxGeometry>
        </mxCell>
        <mxCell id="gMSNzuXhNrLDo63YcK9G-40" value="More people in the group?" style="rhombus;whiteSpace=wrap;html=1;" vertex="1" parent="1">
          <mxGeometry x="355" y="290" width="130" height="130" as="geometry" />
        </mxCell>
        <mxCell id="gMSNzuXhNrLDo63YcK9G-43" value="Yes" style="text;html=1;align=center;verticalAlign=middle;resizable=0;points=[];autosize=1;strokeColor=none;fillColor=none;" vertex="1" parent="1">
          <mxGeometry x="425" y="250" width="40" height="20" as="geometry" />
        </mxCell>
        <mxCell id="gMSNzuXhNrLDo63YcK9G-45" value="Create new order" style="whiteSpace=wrap;html=1;" vertex="1" parent="1">
          <mxGeometry x="580" y="410" width="120" height="60" as="geometry" />
        </mxCell>
        <mxCell id="gMSNzuXhNrLDo63YcK9G-46" value="No" style="text;html=1;align=center;verticalAlign=middle;resizable=0;points=[];autosize=1;strokeColor=none;fillColor=none;" vertex="1" parent="1">
          <mxGeometry x="470" y="410" width="30" height="20" as="geometry" />
        </mxCell>
        <mxCell id="gMSNzuXhNrLDo63YcK9G-55" value="Case 1: New user comes to table" style="text;html=1;align=center;verticalAlign=middle;resizable=0;points=[];autosize=1;strokeColor=none;fillColor=none;" vertex="1" parent="1">
          <mxGeometry x="55" y="560" width="190" height="20" as="geometry" />
        </mxCell>
        <mxCell id="gMSNzuXhNrLDo63YcK9G-56" value="Case 2: Another user joins the table" style="text;html=1;align=center;verticalAlign=middle;resizable=0;points=[];autosize=1;strokeColor=none;fillColor=none;" vertex="1" parent="1">
          <mxGeometry x="50" y="580" width="210" height="20" as="geometry" />
        </mxCell>
        <mxCell id="gMSNzuXhNrLDo63YcK9G-57" value="Case 3: Old user connects and finds order" style="text;html=1;align=center;verticalAlign=middle;resizable=0;points=[];autosize=1;strokeColor=none;fillColor=none;" vertex="1" parent="1">
          <mxGeometry x="55" y="600" width="240" height="20" as="geometry" />
        </mxCell>
        <mxCell id="gMSNzuXhNrLDo63YcK9G-58" value="Case 4: Old user cones when the order is closed" style="text;html=1;align=center;verticalAlign=middle;resizable=0;points=[];autosize=1;strokeColor=none;fillColor=none;" vertex="1" parent="1">
          <mxGeometry x="55" y="620" width="270" height="20" as="geometry" />
        </mxCell>
        <mxCell id="gMSNzuXhNrLDo63YcK9G-61" style="edgeStyle=orthogonalEdgeStyle;rounded=0;orthogonalLoop=1;jettySize=auto;html=1;entryX=0.5;entryY=0;entryDx=0;entryDy=0;exitX=0;exitY=0.5;exitDx=0;exitDy=0;" edge="1" parent="1" source="gMSNzuXhNrLDo63YcK9G-59" target="gMSNzuXhNrLDo63YcK9G-36">
          <mxGeometry relative="1" as="geometry" />
        </mxCell>
        <mxCell id="gMSNzuXhNrLDo63YcK9G-59" value="You man re-enter after an hour since the order has been closed" style="whiteSpace=wrap;html=1;" vertex="1" parent="1">
          <mxGeometry x="260" y="130" width="120" height="60" as="geometry" />
        </mxCell>
      </root>
    </mxGraphModel>
  </diagram>
</mxfile>
